# xmcd
# 
# Track frame offsets:
#     150
#     11838
#     27772
#     46047
#     59692
#     75637
#     100950
#     114215
#     132024
#     153368
#     174736
#     194309
#     204355
#     216754
#     238653
#     251697
#     267230
#     279983
#     298800
#     322994
#     341874
# 
# Disc length: 4765
# 
# Revision: 0
# Processed by: cddbd v1.5.2PL0 Copyright (c) Steve Scherf et al.
# Submitted via: BonkEnc v1.0.15
# 
DISCID=2e129b15
DTITLE=Various Artist - Old Grey Whistle Test Present Country
DYEAR=0
DGENRE=Country
TTITLE0=Steve Earle - Guitar Town
TTITLE1=Steve Forbert - Romeo's Tune
TTITLE2=Roseanne Cash - Runaway Train
TTITLE3=Orleans - Dance With Me
TTITLE4=Nitty Gritty Dirt Band - Modern Day Romance 
TTITLE5=Wally - Your Own Way 
TTITLE6=Little Feat - Willin'
TTITLE7=Linda Ronstadt - The Tattler
TTITLE8=Grateful Dead - Uncle John's Band
TTITLE9=Hot Tuna - True Religion
TTITLE10=Pure Prairie League - Amie
TTITLE11=The Youngbloods - Sugar Babe
TTITLE12=The Flying Burrito Brothers - Cody Cody
TTITLE13=Emmylou Harris - Pancho and Lefty
TTITLE14=Gram Parsons - Streets Of Baltimore
TTITLE15=Uncle Tupelo - Give Back The Key To My Heart 
TTITLE16=Guy Clarke - A Nickel For The Fiddler
TTITLE17=Johnny Cash - Sunday Morning Coming Down
TTITLE18=Kris Kristofferson - Lovin' Her Was Easier (Than Anything I'll Ever Do Again) 
TTITLE19=Nancy Griffiths - From A Distance
TTITLE20=Eric Brace and The Last Train Home - Stone Fox Chase
EXTD=
EXTT0=
EXTT1=
EXTT2=
EXTT3=
EXTT4=
EXTT5=
EXTT6=
EXTT7=
EXTT8=
EXTT9=
EXTT10=
EXTT11=
EXTT12=
EXTT13=
EXTT14=
EXTT15=
EXTT16=
EXTT17=
EXTT18=
EXTT19=
EXTT20=
PLAYORDER=
